<svg xmlns="http://www.w3.org/2000/svg" viewBox="0 0 192 192" height="100%" width="100%"><g class="nc-icon-wrapper js-transition-icon" data-effect="rotate" data-event="mouseenter"><g class="js-transition-icon__state" style=""><path d="M32.049,159.052c-21.278,-23.244 -21.21,-103 -0.019,-126.06c21.196,-23.054 106.684,-23.268 127.957,-0.029c21.279,23.244 21.172,102.996 -0.019,126.05c-21.196,23.055 -106.645,23.278 -127.919,0.039Z" style="fill:#1f69ec;"></path><path d="M98.673,45.259c10.203,0.078 20.368,3.265 28.737,9.109c5.158,3.338 6.735,9.946 2.039,15.011c-0.846,0.852 -1.693,1.703 -2.54,2.555c-1.713,1.722 -4.214,4.218 -4.214,4.218c-3.484,3.139 -8.291,3.455 -12.417,0.755c-10.506,-6.886 -25.166,-3.251 -31.706,8.5c-6.754,12.126 -0.2,27.123 11.984,31.672c6.671,2.491 14.18,1.689 20.418,-2.418c1.703,-1.119 7.357,-3.066 11.687,1.216c2.054,2.029 4.122,4.078 6,5.951c2.267,2.258 3.255,4.141 3.469,6.705c0.428,5.114 -2.491,8.467 -9.279,11.961c-18.169,9.975 -40.936,8.369 -58.098,-6.525c-17.279,-14.695 -22.349,-41.258 -11.245,-61.607c9.045,-16.568 25.614,-26.86 43.924,-27.093c0.413,-0.005 0.827,-0.01 1.241,-0.01Z" style="fill:#fff;"></path></g><g class="js-transition-icon__state" style="display: none;" aria-hidden="true"><path d="M32.049,159.052c-21.278,-23.244 -21.21,-103 -0.019,-126.06c21.196,-23.054 106.684,-23.268 127.957,-0.029c21.279,23.244 21.172,102.996 -0.019,126.05c-21.196,23.055 -106.645,23.278 -127.919,0.039Z" style="fill:#1f69ec;"></path><path d="M94.29,45.832l-43.722,33.85c-0.686,0.526 -1.106,1.383 -1.102,2.247l0,62.058c0,1.476 1.344,2.82 2.821,2.82l29.618,0c1.477,0 2.82,-1.344 2.821,-2.82l0,-33.85l22.566,0l0,33.85c0,1.476 1.344,2.82 2.82,2.82l29.619,0c1.477,0 2.82,-1.344 2.82,-2.82l0,-62.058c0,-0.864 -0.416,-1.721 -1.101,-2.247l-43.722,-33.85c-1.285,-0.803 -2.392,-0.724 -3.438,0Z" style="fill:#fff;fill-rule:nonzero;"></path></g></g><script>!function(){"use strict";if(!window.requestAnimationFrame){var a=null;window.requestAnimationFrame=function(t,i){var e=(new Date).getTime();a||(a=e);var s=Math.max(0,16-(e-a)),n=window.setTimeout(function(){t(e+s)},s);return a=e+s,n}}function r(t,i,e,s){return 1&gt;(t/=s/2)?e/2*t*t*t*t+i:-e/2*((t-=2)*t*t*t-2)+i}function e(t){return t?[1,0]:[0,1]}function t(t){this.element=t,this.svg=function t(i){var e=i.parentNode;if("svg"!==e.tagName)e=t(e);return e;}(this.element),this.getSize(),this.states=this.element.querySelectorAll(".js-transition-icon__state"),this.time={start:null,total:200},this.status={interacted:!1,animating:!1},this.animation={effect:this.element.getAttribute("data-effect"),event:this.element.getAttribute("data-event")},this.init()}t.prototype.getSize=function(){var t=this.svg.getAttribute("viewBox");this.size=t?{width:t.split(" ")[2],height:t.split(" ")[3]}:this.svg.getBoundingClientRect()},t.prototype.init=function(){var t=this;this.svg.addEventListener(t.animation.event,function(){t.status.animating||(t.status.animating=!0,window.requestAnimationFrame(t.triggerAnimation.bind(t)))})},t.prototype.triggerAnimation=function(t){var i=this.getProgress(t);this.animateIcon(i),this.checkProgress(i)},t.prototype.getProgress=function(t){return this.time.start||(this.time.start=t),t-this.time.start},t.prototype.checkProgress=function(t){if(this.time.total&gt;t)window.requestAnimationFrame(this.triggerAnimation.bind(this));else{this.status={interacted:!this.status.interacted,animating:!1},this.time.start=null;var i=e(this.status.interacted);this.states[i[0]].removeAttribute("aria-hidden"),this.states[i[1]].setAttribute("aria-hidden","true")}},t.prototype.animateIcon=function(t){if(t&gt;this.time.total){t=this.time.total;}if(0&gt;t){t=0;};var i=e(this.status.interacted);this.states[i[0]].style.display=t&gt;this.time.total/2?"none":"block",this.states[i[1]].style.display=t&gt;this.time.total/2?"block":"none","scale"==this.animation.effect?this.scaleIcon(t,i[0],i[1]):this.rotateIcon(t,i[0],i[1])},t.prototype.scaleIcon=function(t,i,e){var s=r(Math.min(t,this.time.total/2),1,-.2,this.time.total/2).toFixed(2),n=r(Math.max(t-this.time.total/2,0),.2,-.2,this.time.total/2).toFixed(2);this.states[i].setAttribute("transform","translate("+this.size.width*(1-s)/2+" "+this.size.height*(1-s)/2+") scale("+s+")"),this.states[e].setAttribute("transform","translate("+this.size.width*n/2+" "+this.size.height*n/2+") scale("+(1-n)+")")},t.prototype.rotateIcon=function(t,i,e){var s=r(t,0,180,this.time.total).toFixed(2);this.states[i].setAttribute("transform","rotate(-"+s+" "+this.size.width/2+" "+this.size.height/2+")"),this.states[e].setAttribute("transform","rotate("+(180-s)+" "+this.size.width/2+" "+this.size.height/2+")")};var i=document.querySelectorAll(".js-transition-icon");if(i)for(var s=0;i.length&gt;s;s++)new t(i[s])}();</script></svg>